<svg aria-hidden="true" style="position: absolute; width: 0; height: 0; overflow: hidden;" version="1.1" xmlns="http://www.w3.org/2000/svg" xmlns:xlink="http://www.w3.org/1999/xlink">
<defs>
<symbol id="icon-archive" viewBox="0 0 20 20">
<title>archive</title>
<path d="M13.981 2h-7.963c0 0-0.996 0-0.996 1h9.955c0-1-0.996-1-0.996-1zM16.968 5c0-1-0.995-1-0.995-1h-11.946c0 0-0.995 0-0.995 1v1h13.936v-1zM18.958 6c-0.588-0.592-0.588-0.592-0.588-0.592v1.592h-16.74v-1.592c0 0 0 0-0.589 0.592s-1.011 0.75-0.774 2c0.236 1.246 1.379 8.076 1.549 9 0.186 1.014 1.217 1 1.217 1h13.936c0 0 1.030 0.014 1.217-1 0.17-0.924 1.312-7.754 1.549-9 0.235-1.25-0.187-1.408-0.777-2zM14 11.997c0 0.554-0.449 1.003-1.003 1.003h-5.994c-0.554 0-1.003-0.449-1.003-1.003v-1.997h1v2h6v-2h1v1.997z"></path>
</symbol>
<symbol id="icon-box" viewBox="0 0 20 20">
<title>box</title>
<path d="M18.399 2h-16.799c-0.332 0-0.6 0.267-0.6 0.6v2.4h18v-2.4c0-0.333-0.27-0.6-0.601-0.6zM2 16.6c0 0.77 0.629 1.4 1.399 1.4h13.2c0.77 0 1.4-0.631 1.4-1.4v-10.6h-15.999v10.6zM7 8h6v2h-6v-2z"></path>
</symbol>
<symbol id="icon-funnel" viewBox="0 0 20 20">
<title>funnel</title>
<path d="M10 1c-4.908 0-8 1.512-8 3.001v2c0 0.918 6 6 6 6v6c-0.001 0.684 1 1 2 1s2.001-0.316 2-1v-6c0 0 6-5.082 6-6v-2c0-1.489-3.092-3.001-8-3.001zM10 6.123c-3.591-0.001-6.138-1.333-6.138-1.831-0.002-0.495 2.548-1.831 6.138-1.829 3.59-0.002 6.14 1.334 6.138 1.828 0 0.499-2.547 1.831-6.138 1.832z"></path>
</symbol>
<symbol id="icon-help-with-circle" viewBox="0 0 20 20">
<title>help-with-circle</title>
<path d="M10 0.4c-5.302 0-9.6 4.298-9.6 9.6s4.298 9.6 9.6 9.6c5.301 0 9.6-4.298 9.6-9.601 0-5.301-4.299-9.599-9.6-9.599zM9.849 15.599h-0.051c-0.782-0.023-1.334-0.6-1.311-1.371 0.022-0.758 0.587-1.309 1.343-1.309l0.046 0.002c0.804 0.023 1.35 0.594 1.327 1.387-0.023 0.76-0.578 1.291-1.354 1.291zM13.14 9.068c-0.184 0.26-0.588 0.586-1.098 0.983l-0.562 0.387c-0.308 0.24-0.494 0.467-0.563 0.688-0.056 0.174-0.082 0.221-0.087 0.576v0.090h-2.145l0.006-0.182c0.027-0.744 0.045-1.184 0.354-1.547 0.485-0.568 1.555-1.258 1.6-1.287 0.154-0.115 0.283-0.246 0.379-0.387 0.225-0.311 0.324-0.555 0.324-0.793 0-0.334-0.098-0.643-0.293-0.916-0.188-0.266-0.545-0.398-1.061-0.398-0.512 0-0.863 0.162-1.072 0.496-0.216 0.341-0.325 0.7-0.325 1.067v0.092h-2.211l0.004-0.096c0.057-1.353 0.541-2.328 1.435-2.897 0.563-0.361 1.264-0.544 2.081-0.544 1.068 0 1.972 0.26 2.682 0.772 0.721 0.519 1.086 1.297 1.086 2.311-0.001 0.567-0.18 1.1-0.534 1.585z"></path>
</symbol>
<symbol id="icon-add_circle" viewBox="0 0 24 24">
<title>add_circle</title>
<path d="M17.016 12.984v-1.969h-4.031v-4.031h-1.969v4.031h-4.031v1.969h4.031v4.031h1.969v-4.031h4.031zM12 2.016c5.531 0 9.984 4.453 9.984 9.984s-4.453 9.984-9.984 9.984-9.984-4.453-9.984-9.984 4.453-9.984 9.984-9.984z"></path>
</symbol>
<symbol id="icon-control_point" viewBox="0 0 24 24">
<title>control_point</title>
<path d="M12 20.016c4.406 0 8.016-3.609 8.016-8.016s-3.609-8.016-8.016-8.016-8.016 3.609-8.016 8.016 3.609 8.016 8.016 8.016zM12 2.016c5.531 0 9.984 4.453 9.984 9.984s-4.453 9.984-9.984 9.984-9.984-4.453-9.984-9.984 4.453-9.984 9.984-9.984zM12.984 6.984v4.031h4.031v1.969h-4.031v4.031h-1.969v-4.031h-4.031v-1.969h4.031v-4.031h1.969z"></path>
</symbol>
<symbol id="icon-airport_shuttle" viewBox="0 0 24 24">
<title>airport_shuttle</title>
<path d="M15 11.016h5.016l-4.031-4.031h-0.984v4.031zM17.484 17.484c0.844 0 1.5-0.656 1.5-1.5s-0.656-1.5-1.5-1.5-1.5 0.656-1.5 1.5 0.656 1.5 1.5 1.5zM12.984 11.016v-4.031h-3.984v4.031h3.984zM6 17.484c0.844 0 1.5-0.656 1.5-1.5s-0.656-1.5-1.5-1.5-1.5 0.656-1.5 1.5 0.656 1.5 1.5 1.5zM3 11.016h3.984v-4.031h-3.984v4.031zM17.016 5.016l6 6v4.969h-2.531c0 1.641-1.359 3-3 3s-3-1.359-3-3h-5.484c0 1.641-1.359 3-3 3s-3-1.359-3-3h-2.016v-9c0-1.125 0.938-1.969 2.016-1.969h14.016z"></path>
</symbol>
<symbol id="icon-redeem" viewBox="0 0 24 24">
<title>redeem</title>
<path d="M20.016 14.016v-6h-5.109l2.109 2.813-1.641 1.172c-1.127-1.529-2.265-3.048-3.375-4.594-1.11 1.546-2.248 3.064-3.375 4.594l-1.641-1.172 2.109-2.813h-5.109v6h16.031zM20.016 18.984v-1.969h-16.031v1.969h16.031zM9 3.984c-0.563 0-0.984 0.469-0.984 1.031s0.422 0.984 0.984 0.984 0.984-0.422 0.984-0.984-0.422-1.031-0.984-1.031zM15 3.984c-0.563 0-0.984 0.469-0.984 1.031s0.422 0.984 0.984 0.984 0.984-0.422 0.984-0.984-0.422-1.031-0.984-1.031zM20.016 6c1.125 0 1.969 0.891 1.969 2.016v10.969c0 1.125-0.844 2.016-1.969 2.016h-16.031c-1.125 0-1.969-0.891-1.969-2.016v-10.969c0-1.125 0.844-2.016 1.969-2.016h2.203c-0.094-0.328-0.188-0.656-0.188-0.984 0-1.641 1.359-3 3-3 1.031 0 1.922 0.516 2.484 1.313l0.516 0.703 0.516-0.703c0.563-0.797 1.453-1.313 2.484-1.313 1.641 0 3 1.359 3 3 0 0.328-0.094 0.656-0.188 0.984h2.203z"></path>
</symbol>
<symbol id="icon-card_membership" viewBox="0 0 24 24">
<title>card_membership</title>
<path d="M20.016 9.984v-6h-16.031v6h16.031zM20.016 15v-2.016h-16.031v2.016h16.031zM20.016 2.016c1.125 0 1.969 0.844 1.969 1.969v11.016c0 1.125-0.844 2.016-1.969 2.016h-4.031v4.969l-3.984-1.969-3.984 1.969v-4.969h-4.031c-1.125 0-1.969-0.891-1.969-2.016v-11.016c0-1.125 0.844-1.969 1.969-1.969h16.031z"></path>
</symbol>
<symbol id="icon-check_circle" viewBox="0 0 24 24">
<title>check_circle</title>
<path d="M9.984 17.016l9-9-1.406-1.453-7.594 7.594-3.563-3.563-1.406 1.406zM12 2.016c5.531 0 9.984 4.453 9.984 9.984s-4.453 9.984-9.984 9.984-9.984-4.453-9.984-9.984 4.453-9.984 9.984-9.984z"></path>
</symbol>
<symbol id="icon-pool" viewBox="0 0 24 24">
<title>pool</title>
<path d="M14.016 5.484c0-1.359 1.125-2.484 2.484-2.484s2.484 1.125 2.484 2.484-1.125 2.531-2.484 2.531-2.484-1.172-2.484-2.531zM8.672 12c-0.563 0-0.797-0.141-1.172-0.375-0.188-0.141-0.422-0.234-0.75-0.375l3.234-3.234-0.984-1.031c-1.125-1.125-2.156-1.5-3.984-1.5v-2.484c2.484 0 3.938 0.469 5.484 2.016l6.422 6.375c-0.141 0.094-0.281 0.188-0.422 0.234-0.375 0.234-0.609 0.375-1.172 0.375s-0.75-0.141-1.125-0.375c-0.469-0.281-1.078-0.609-2.203-0.609s-1.734 0.328-2.203 0.609c-0.375 0.234-0.563 0.375-1.125 0.375zM21.984 16.5c-1.125 0-1.688-0.375-2.156-0.656-0.375-0.234-0.609-0.328-1.172-0.328s-0.75 0.094-1.125 0.328c-0.469 0.281-1.078 0.656-2.203 0.656s-1.688-0.375-2.156-0.656c-0.375-0.234-0.609-0.328-1.172-0.328s-0.75 0.094-1.125 0.328c-0.469 0.281-1.078 0.656-2.203 0.656s-1.688-0.375-2.156-0.656c-0.375-0.234-0.609-0.328-1.172-0.328s-0.75 0.094-1.125 0.328c-0.469 0.281-1.078 0.656-2.203 0.656v-2.016c0.563 0 0.75-0.094 1.125-0.328 0.469-0.281 1.078-0.656 2.203-0.656s1.688 0.375 2.156 0.656c0.375 0.234 0.609 0.328 1.172 0.328s0.75-0.094 1.125-0.328c0.469-0.281 1.078-0.656 2.203-0.656s1.688 0.375 2.156 0.656c0.375 0.234 0.609 0.328 1.172 0.328s0.75-0.094 1.125-0.328c0.469-0.281 1.078-0.656 2.203-0.656s1.688 0.375 2.156 0.656c0.375 0.234 0.609 0.328 1.172 0.328v2.016zM21.984 21c-1.125 0-1.688-0.375-2.156-0.656-0.375-0.234-0.609-0.328-1.172-0.328s-0.75 0.094-1.125 0.328c-0.469 0.281-1.078 0.656-2.203 0.656s-1.688-0.375-2.156-0.656c-0.375-0.234-0.609-0.328-1.172-0.328s-0.75 0.094-1.125 0.328c-0.469 0.281-1.078 0.656-2.203 0.656s-1.734-0.375-2.203-0.656c-0.375-0.234-0.563-0.328-1.125-0.328s-0.797 0.094-1.172 0.328c-0.469 0.281-1.031 0.656-2.156 0.656v-2.016c0.563 0 0.75-0.094 1.125-0.328 0.469-0.281 1.078-0.656 2.203-0.656s1.688 0.375 2.156 0.656c0.375 0.234 0.609 0.328 1.172 0.328s0.75-0.094 1.125-0.328c0.469-0.281 1.078-0.656 2.203-0.656s1.734 0.375 2.203 0.656c0.375 0.234 0.563 0.328 1.125 0.328s0.797-0.094 1.172-0.328c0.469-0.281 1.031-0.656 2.156-0.656s1.734 0.375 2.203 0.656c0.375 0.234 0.563 0.328 1.125 0.328v2.016z"></path>
</symbol>
</defs>
</svg>
