<?xml version="1.0" standalone="no"?>
<!DOCTYPE svg PUBLIC "-//W3C//DTD SVG 1.1//EN" "http://www.w3.org/Graphics/SVG/1.1/DTD/svg11.dtd">
<!--Generator: Xara Designer (www.xara.com), SVG filter version: 6.1.0.16-->
<svg stroke-width="0.501" stroke-linejoin="bevel" fill-rule="evenodd" xmlns:xlink="http://www.w3.org/1999/xlink" xmlns="http://www.w3.org/2000/svg" version="1.1" overflow="visible" width="240.247pt" height="235.279pt" viewBox="0 0 240.247 235.279">
 <defs>
	</defs>
 <g id="Document" fill="none" stroke="black" font-family="Times New Roman" font-size="16" transform="scale(1 -1)">
  <g id="Spread" transform="translate(0 -235.279)">
   <g id="Layer 1">
    <g id="Group" fill-rule="evenodd" stroke-linejoin="miter" stroke="none" stroke-width="0.468" fill="#ffffff" stroke-miterlimit="79.8403193612775">
     <path d="M 78.586,108.044 L 18.711,108.044 C 16.644,108.044 14.968,106.368 14.968,104.301 L 14.968,44.426 C 14.968,42.359 16.644,40.684 18.711,40.684 L 78.586,40.684 C 80.652,40.684 82.328,42.359 82.328,44.426 L 82.328,104.301 C 82.328,106.368 80.652,108.044 78.586,108.044 Z M 74.844,48.168 L 22.453,48.168 L 22.453,100.559 L 74.844,100.559 L 74.844,48.168 Z" marker-start="none" marker-end="none"/>
     <path d="M 194.112,235.279 L 48.648,235.279 C 46.582,235.279 44.906,233.603 44.906,231.536 L 44.906,160.434 L 18.711,160.434 C 16.644,160.434 14.968,158.759 14.968,156.692 L 14.968,141.694 C 14.824,137.329 12.523,133.32 8.827,130.994 C 3.053,127.293 0,119.789 0,109.292 L 0,14.488 C 0,12.422 1.675,10.747 3.742,10.747 L 220.79,10.747 C 222.856,10.747 224.532,12.422 224.532,14.488 L 224.532,204.859 C 224.513,221.651 210.905,235.26 194.112,235.279 Z M 22.453,152.95 L 74.844,152.95 L 74.844,141.723 L 22.453,141.723 L 22.453,152.95 Z M 89.812,18.231 L 7.484,18.231 L 7.484,109.292 C 7.484,117.001 9.395,122.47 12.863,124.692 C 16.45,126.988 19.257,130.317 20.915,134.239 L 76.381,134.239 C 78.039,130.317 80.845,126.989 84.431,124.694 C 87.901,122.47 89.812,117.001 89.812,109.292 L 89.812,18.231 Z M 88.468,130.995 C 84.772,133.322 82.472,137.33 82.328,141.694 L 82.328,156.692 C 82.328,158.759 80.652,160.434 78.586,160.434 L 74.844,160.434 L 74.844,167.919 L 194.594,167.919 L 194.594,78.106 L 97.297,78.106 L 97.297,109.292 C 97.297,119.789 94.244,127.293 88.468,130.995 Z M 217.047,18.231 L 97.297,18.231 L 97.297,70.622 L 198.336,70.622 C 200.403,70.622 202.079,72.297 202.079,74.364 L 202.079,171.661 C 202.079,173.728 200.403,175.403 198.336,175.403 L 71.101,175.403 C 69.035,175.403 67.359,173.728 67.359,171.661 L 67.359,160.434 L 52.39,160.434 L 52.39,197.856 L 179.625,197.856 L 179.625,205.341 L 52.39,205.341 L 52.39,227.794 L 194.112,227.794 C 206.58,227.776 216.753,217.806 217.023,205.341 L 202.079,205.341 L 202.079,197.856 L 217.047,197.856 L 217.047,18.231 Z" marker-start="none" marker-end="none"/>
     <path d="M 167.269,132.76 C 166.709,133.306 165.993,133.662 165.221,133.781 L 146.51,136.638 L 138.106,154.54 C 137.228,156.411 135,157.216 133.129,156.338 C 132.338,155.967 131.702,155.331 131.331,154.54 L 122.928,136.638 L 104.217,133.781 C 102.173,133.468 100.77,131.558 101.083,129.515 C 101.2,128.743 101.557,128.027 102.103,127.467 L 115.752,113.478 L 112.524,93.678 C 112.19,91.639 113.573,89.716 115.612,89.382 C 116.441,89.246 117.292,89.394 118.027,89.801 L 134.719,99.026 L 151.411,89.8 C 153.219,88.8 155.496,89.455 156.496,91.263 C 156.903,91.998 157.05,92.849 156.915,93.678 L 153.686,113.478 L 167.336,127.467 C 168.779,128.947 168.749,131.317 167.269,132.76 Z M 147.009,117.351 C 146.179,116.501 145.802,115.308 145.995,114.135 L 148.288,100.078 L 136.529,106.576 C 135.402,107.2 134.034,107.2 132.908,106.576 L 121.149,100.078 L 123.442,114.135 C 123.634,115.308 123.258,116.501 122.428,117.351 L 112.546,127.48 L 126.031,129.539 C 127.265,129.729 128.323,130.52 128.854,131.649 L 134.719,144.143 L 140.582,131.65 C 141.113,130.52 142.172,129.729 143.405,129.539 L 156.89,127.48 L 147.009,117.351 Z" marker-start="none" marker-end="none"/>
     <path d="M 66.23,80.575 C 65.671,81.121 64.954,81.478 64.182,81.596 L 55.813,82.875 L 52.036,90.922 C 51.158,92.793 48.929,93.598 47.058,92.72 C 46.268,92.349 45.631,91.713 45.26,90.922 L 41.483,82.875 L 33.114,81.596 C 31.071,81.284 29.668,79.376 29.98,77.334 C 30.098,76.561 30.454,75.844 31,75.285 L 37.166,68.966 L 35.704,59.998 C 35.37,57.959 36.753,56.035 38.792,55.702 C 39.621,55.566 40.472,55.714 41.207,56.12 L 48.648,60.234 L 56.089,56.12 C 57.897,55.12 60.173,55.775 61.173,57.583 C 61.58,58.318 61.728,59.169 61.592,59.998 L 60.13,68.966 L 66.295,75.285 C 67.739,76.764 67.71,79.132 66.23,80.575 Z M 53.454,72.84 C 52.624,71.99 52.247,70.796 52.439,69.624 L 52.966,66.398 L 50.459,67.784 C 49.332,68.407 47.964,68.407 46.837,67.784 L 44.331,66.398 L 44.857,69.624 C 45.049,70.796 44.673,71.99 43.843,72.84 L 41.443,75.299 L 44.588,75.778 C 45.822,75.967 46.881,76.758 47.411,77.888 L 48.649,80.525 L 49.886,77.888 C 50.416,76.758 51.475,75.966 52.709,75.777 L 55.854,75.299 L 53.454,72.84 Z" marker-start="none" marker-end="none"/>
     <path d="M 194.594,197.856 L 187.109,197.856 L 187.109,205.341 L 194.594,205.341 L 194.594,197.856 Z" marker-start="none" marker-end="none"/>
    </g>
    <path d="M 159.563,85.986 C 180.049,103.545 210.926,101.17 228.486,80.684 C 246.045,60.198 243.67,29.321 223.184,11.761 C 202.698,-5.798 171.821,-3.423 154.261,17.063 C 136.702,37.549 139.077,68.426 159.563,85.986 Z" stroke="none" fill="#ffffff" stroke-width="5.301" stroke-linejoin="round" stroke-linecap="round" marker-start="none" marker-end="none" stroke-miterlimit="79.8403193612775"/>
    <path d="M 164.119,80.671 C 181.671,95.715 208.125,93.68 223.17,76.128 C 238.214,58.576 236.179,32.122 218.627,17.077 C 201.076,2.033 174.621,4.068 159.576,21.62 C 144.532,39.171 146.567,65.626 164.119,80.671 Z" stroke="none" fill="#cccccc" stroke-width="4.542" stroke-linejoin="round" stroke-linecap="round" marker-start="none" marker-end="none" stroke-miterlimit="79.8403193612775"/>
    <path d="M 179.966,31.026 L 220.132,66.724" fill="none" stroke="#ffffff" stroke-width="12" stroke-linejoin="round" stroke-linecap="round" stroke-miterlimit="79.8403193612775"/>
    <path d="M 179.966,31.026 L 162.61,49.835" fill="none" stroke="#ffffff" stroke-width="12" stroke-linejoin="round" stroke-linecap="round" stroke-miterlimit="79.8403193612775"/>
   </g>
  </g>
 </g>
</svg>
