<?xml version="1.0" standalone="no"?>
<!DOCTYPE svg PUBLIC "-//W3C//DTD SVG 1.1//EN" "http://www.w3.org/Graphics/SVG/1.1/DTD/svg11.dtd">
<!--Generator: Xara Designer (www.xara.com), SVG filter version: 6.1.0.16-->
<svg stroke-width="0.501" stroke-linejoin="bevel" fill-rule="evenodd" xmlns:xlink="http://www.w3.org/1999/xlink" xmlns="http://www.w3.org/2000/svg" version="1.1" overflow="visible" width="210.027pt" height="189.929pt" viewBox="0 0 210.027 189.929">
 <defs>
	</defs>
 <g id="Document" fill="none" stroke="black" font-family="Times New Roman" font-size="16" transform="scale(1 -1)">
  <g id="Spread" transform="translate(0 -189.929)">
   <g id="Layer 1">
    <g id="Group" fill-rule="evenodd" stroke-linejoin="miter" stroke="none" stroke-width="0.36" fill="#ffffff" stroke-miterlimit="79.8403193612775">
     <path d="M 6.146,108.574 C 5.477,109.244 4.547,109.629 3.6,109.629 C 2.653,109.629 1.724,109.244 1.055,108.574 C 0.384,107.905 0,106.976 0,106.029 C 0,105.082 0.384,104.152 1.055,103.483 C 1.725,102.813 2.653,102.428 3.6,102.428 C 4.547,102.428 5.477,102.813 6.146,103.483 C 6.816,104.152 7.201,105.082 7.201,106.029 C 7.201,106.976 6.816,107.905 6.146,108.574 Z" marker-start="none" marker-end="none"/>
     <path d="M 181.089,146.035 L 155.617,182.277 C 152.25,187.068 146.743,189.929 140.886,189.929 L 106.704,189.929 L 77.658,189.929 L 43.476,189.929 C 37.62,189.929 32.112,187.068 28.746,182.277 L 3.274,146.035 C 1.132,142.987 0,139.407 0,135.682 L 0,121.512 C 0,119.524 1.612,117.912 3.6,117.912 C 5.588,117.912 7.201,119.524 7.201,121.512 L 7.201,135.682 C 7.201,136.002 7.219,136.32 7.247,136.636 L 61.934,136.636 L 61.934,97.747 C 61.934,96.461 62.62,95.272 63.735,94.629 C 64.292,94.307 64.913,94.146 65.535,94.146 C 66.156,94.146 66.778,94.306 67.335,94.628 L 92.349,109.066 L 117.009,94.639 C 118.123,93.988 119.5,93.981 120.619,94.623 C 121.738,95.265 122.428,96.457 122.428,97.747 L 122.428,136.636 L 177.115,136.636 C 177.143,136.32 177.161,136.002 177.161,135.682 L 177.161,23.57 C 177.161,17.613 172.315,12.767 166.359,12.767 L 18.004,12.767 C 12.047,12.767 7.201,17.613 7.201,23.57 L 7.201,91.985 C 7.201,93.975 5.588,95.586 3.6,95.586 C 1.612,95.586 0,93.975 0,91.985 L 0,23.57 C 0,13.642 8.076,5.566 18.004,5.566 L 166.359,5.566 C 176.286,5.566 184.363,13.642 184.363,23.57 L 184.363,135.682 C 184.363,139.407 183.231,142.987 181.089,146.035 Z M 80.434,182.727 L 103.929,182.727 L 114.157,143.838 L 70.206,143.838 L 80.434,182.727 Z M 62.758,143.838 L 10.533,143.838 L 34.638,178.135 C 36.658,181.011 39.962,182.727 43.476,182.727 L 72.988,182.727 L 62.758,143.838 Z M 115.226,104.025 L 94.179,116.338 C 93.062,116.992 91.681,116.995 90.561,116.349 L 69.136,103.983 L 69.136,136.636 L 115.226,136.636 L 115.226,104.025 Z M 121.604,143.838 L 111.375,182.727 L 140.886,182.727 C 144.4,182.727 147.704,181.011 149.724,178.135 L 173.83,143.838 L 121.604,143.838 Z" marker-start="none" marker-end="none"/>
     <path d="M 45.846,81.303 C 31.288,81.303 19.444,69.46 19.444,54.902 L 19.444,53.286 C 19.444,51.818 20.336,50.497 21.696,49.948 C 23.057,49.399 24.616,49.73 25.636,50.785 C 27.756,52.981 30.596,54.19 33.632,54.19 C 36.991,54.19 40.139,52.675 42.245,50.099 L 42.245,35.441 C 42.245,33.76 40.876,32.392 39.196,32.392 C 37.514,32.392 36.147,33.76 36.147,35.441 C 36.147,37.43 34.534,39.042 32.546,39.042 C 30.557,39.042 28.945,37.43 28.945,35.441 C 28.945,29.789 33.543,25.19 39.196,25.19 C 44.848,25.19 49.447,29.789 49.447,35.441 L 49.447,50.098 C 51.553,52.675 54.7,54.19 58.061,54.19 C 61.097,54.19 63.936,52.981 66.057,50.785 C 67.076,49.73 68.635,49.398 69.995,49.948 C 71.357,50.497 72.247,51.818 72.247,53.286 L 72.247,54.902 C 72.247,69.46 60.404,81.303 45.846,81.303 Z M 58.06,61.392 C 53.496,61.392 49.168,59.701 45.846,56.729 C 42.524,59.701 38.195,61.392 33.631,61.392 C 31.479,61.392 29.387,61.024 27.424,60.317 C 29.767,68.276 37.138,74.101 45.846,74.101 C 54.553,74.101 61.925,68.276 64.268,60.317 C 62.305,61.024 60.212,61.392 58.06,61.392 Z" marker-start="none" marker-end="none"/>
     <path d="M 140.396,31.156 C 139.726,31.826 138.798,32.211 137.85,32.211 C 136.9,32.211 135.974,31.826 135.301,31.156 C 134.631,30.486 134.25,29.558 134.25,28.61 C 134.25,27.664 134.631,26.734 135.301,26.065 C 135.974,25.395 136.9,25.01 137.85,25.01 C 138.798,25.01 139.723,25.395 140.396,26.065 C 141.066,26.734 141.448,27.664 141.448,28.61 C 141.448,29.558 141.066,30.486 140.396,31.156 Z" marker-start="none" marker-end="none"/>
     <path d="M 122.558,32.211 L 92.162,32.211 C 90.174,32.211 88.561,30.6 88.561,28.61 C 88.561,26.622 90.174,25.01 92.162,25.01 L 122.558,25.01 C 124.546,25.01 126.159,26.622 126.159,28.61 C 126.159,30.6 124.546,32.211 122.558,32.211 Z" marker-start="none" marker-end="none"/>
     <path d="M 161.287,49.496 L 92.185,49.496 C 90.198,49.496 88.585,47.883 88.585,45.895 C 88.585,43.906 90.198,42.294 92.185,42.294 L 161.287,42.294 C 163.275,42.294 164.887,43.906 164.887,45.895 C 164.887,47.883 163.275,49.496 161.287,49.496 Z" marker-start="none" marker-end="none"/>
     <path d="M 161.258,66.78 L 92.157,66.78 C 90.169,66.78 88.556,65.168 88.556,63.179 C 88.556,61.19 90.169,59.578 92.157,59.578 L 161.258,59.578 C 163.246,59.578 164.859,61.19 164.859,63.179 C 164.859,65.168 163.246,66.78 161.258,66.78 Z" marker-start="none" marker-end="none"/>
    </g>
    <path d="M 129.343,85.986 C 149.829,103.545 180.706,101.17 198.266,80.684 C 215.825,60.198 213.45,29.321 192.964,11.761 C 172.478,-5.798 141.601,-3.423 124.041,17.063 C 106.482,37.549 108.857,68.426 129.343,85.986 Z" stroke="none" fill="#ffffff" stroke-width="5.301" stroke-linejoin="round" stroke-linecap="round" marker-start="none" marker-end="none" stroke-miterlimit="79.8403193612775"/>
    <path d="M 133.899,80.671 C 151.451,95.715 177.905,93.68 192.95,76.128 C 207.994,58.576 205.959,32.122 188.407,17.077 C 170.856,2.033 144.401,4.068 129.356,21.62 C 114.312,39.171 116.347,65.626 133.899,80.671 Z" stroke="none" fill="#cccccc" stroke-width="4.542" stroke-linejoin="round" stroke-linecap="round" marker-start="none" marker-end="none" stroke-miterlimit="79.8403193612775"/>
    <path d="M 149.746,31.026 L 189.912,66.724" fill="none" stroke="#ffffff" stroke-width="12" stroke-linejoin="round" stroke-linecap="round" stroke-miterlimit="79.8403193612775"/>
    <path d="M 149.746,31.026 L 132.39,49.835" fill="none" stroke="#ffffff" stroke-width="12" stroke-linejoin="round" stroke-linecap="round" stroke-miterlimit="79.8403193612775"/>
   </g>
  </g>
 </g>
</svg>
