<?xml version="1.0" standalone="no"?>
<!DOCTYPE svg PUBLIC "-//W3C//DTD SVG 1.1//EN" "http://www.w3.org/Graphics/SVG/1.1/DTD/svg11.dtd">
<!--Generator: Xara Designer (www.xara.com), SVG filter version: 6.1.0.16-->
<svg stroke-width="0.501" stroke-linejoin="bevel" fill-rule="evenodd" xmlns:xlink="http://www.w3.org/1999/xlink" xmlns="http://www.w3.org/2000/svg" version="1.1" overflow="visible" width="258.247pt" height="250.27pt" viewBox="0 0 258.247 250.27">
 <defs>
	</defs>
 <g id="Document" fill="none" stroke="black" font-family="Times New Roman" font-size="16" transform="scale(1 -1)">
  <g id="Spread" transform="translate(0 -250.27)">
   <g id="Layer 1">
    <path d="M 177.563,85.986 C 198.049,103.545 228.926,101.17 246.486,80.684 C 264.045,60.198 261.67,29.321 241.184,11.761 C 220.698,-5.798 189.821,-3.423 172.261,17.063 C 154.702,37.549 157.077,68.426 177.563,85.986 Z" stroke="none" fill="#ffffff" stroke-width="5.301" stroke-linejoin="round" stroke-linecap="round" marker-start="none" marker-end="none" stroke-miterlimit="79.8403193612775"/>
    <g id="Group" fill-rule="evenodd" stroke-linejoin="miter" stroke="none" stroke-width="0.468" fill="#ffffff" stroke-miterlimit="79.8403193612775">
     <path d="M 220.79,160.467 L 3.742,160.467 C 1.676,160.467 0,158.794 0,156.725 L 0,44.458 L 0,29.49 C 0,27.42 1.676,25.747 3.742,25.747 L 220.79,25.747 C 222.855,25.747 224.532,27.42 224.532,29.49 L 224.532,44.458 L 224.532,156.725 C 224.532,158.794 222.855,160.467 220.79,160.467 Z M 217.047,33.232 L 7.484,33.232 L 7.484,40.716 L 217.047,40.716 L 217.047,33.232 Z M 217.047,48.201 L 7.484,48.201 L 7.484,152.982 L 217.047,152.982 L 217.047,48.201 Z" marker-start="none" marker-end="none"/>
     <path d="M 97.297,197.888 L 89.812,197.888 L 89.812,205.373 L 97.297,205.373 L 97.297,197.888 Z" marker-start="none" marker-end="none"/>
     <path d="M 82.328,197.888 L 74.843,197.888 L 74.843,205.373 L 82.328,205.373 L 82.328,197.888 Z" marker-start="none" marker-end="none"/>
     <path d="M 67.359,197.888 L 59.874,197.888 L 59.874,205.373 L 67.359,205.373 L 67.359,197.888 Z" marker-start="none" marker-end="none"/>
     <path d="M 67.359,182.919 L 59.874,182.919 L 59.874,190.404 L 67.359,190.404 L 67.359,182.919 Z" marker-start="none" marker-end="none"/>
     <path d="M 67.359,167.95 L 59.874,167.95 L 59.874,175.435 L 67.359,175.435 L 67.359,167.95 Z" marker-start="none" marker-end="none"/>
     <path d="M 82.328,167.95 L 74.843,167.95 L 74.843,175.435 L 82.328,175.435 L 82.328,167.95 Z" marker-start="none" marker-end="none"/>
     <path d="M 97.297,167.95 L 89.812,167.95 L 89.812,175.435 L 97.297,175.435 L 97.297,167.95 Z" marker-start="none" marker-end="none"/>
     <path d="M 112.265,167.95 L 104.78,167.95 L 104.78,175.435 L 112.265,175.435 L 112.265,167.95 Z" marker-start="none" marker-end="none"/>
     <path d="M 127.234,167.95 L 119.749,167.95 L 119.749,175.435 L 127.234,175.435 L 127.234,167.95 Z" marker-start="none" marker-end="none"/>
     <path d="M 213.41,242.021 L 200.544,249.737 C 199.47,250.381 198.145,250.444 197.015,249.909 L 170.506,237.354 L 140.156,249.745 C 139.438,250.036 138.641,250.104 137.892,249.924 L 122.923,246.429 C 121.464,246.088 120.349,244.913 120.087,243.435 C 119.829,241.961 120.472,240.475 121.722,239.652 L 144.243,224.911 L 127.56,217.008 L 114.556,223.527 C 111.876,224.863 108.662,224.488 106.372,222.546 C 104.081,220.608 103.172,217.502 104.051,214.639 L 108.714,199.438 C 109.687,196.272 112.561,194.147 115.869,194.147 L 127.519,194.147 C 127.968,194.147 128.413,194.225 128.832,194.382 L 153.063,203.472 L 149.995,175.847 C 149.841,174.485 150.447,173.149 151.574,172.363 C 152.214,171.918 152.962,171.69 153.714,171.69 C 154.287,171.69 154.859,171.821 155.387,172.083 L 170.356,179.567 C 171.243,180.012 171.916,180.791 172.231,181.73 L 182.967,213.939 L 212.905,228.908 C 215.348,230.128 216.931,232.579 217.036,235.311 C 217.141,238.043 215.753,240.614 213.41,242.021 Z M 133.143,241.141 L 138.439,242.376 L 161.345,233.021 L 152.176,228.68 L 133.143,241.141 Z M 178.237,219.945 C 177.35,219.5 176.676,218.722 176.362,217.782 L 165.626,185.573 L 158.197,181.861 L 161.18,208.704 C 161.326,209.999 160.787,211.271 159.762,212.068 C 159.092,212.588 158.28,212.858 157.46,212.858 C 157.019,212.858 156.573,212.779 156.147,212.622 L 126.845,201.631 L 115.873,201.631 L 111.21,216.832 L 125.85,209.512 C 126.875,208.999 128.084,208.988 129.124,209.478 L 198.415,242.298 L 209.563,235.61 L 178.237,219.945 Z" marker-start="none" marker-end="none"/>
     <path d="M 205.821,115.56 L 130.977,115.56 C 128.911,115.56 127.234,113.888 127.234,111.818 L 127.234,89.365 C 127.234,87.295 128.911,85.623 130.977,85.623 L 205.821,85.623 C 207.886,85.623 209.563,87.295 209.563,89.365 L 209.563,111.818 C 209.563,113.888 207.886,115.56 205.821,115.56 Z M 202.079,93.107 L 134.719,93.107 L 134.719,108.076 L 202.079,108.076 L 202.079,93.107 Z" marker-start="none" marker-end="none"/>
     <path d="M 114.511,99.843 L 101.398,109.678 C 102.001,110.942 103.292,111.818 104.781,111.818 C 106.843,111.818 108.523,110.142 108.523,108.076 L 116.008,108.076 C 116.008,112.948 112.868,117.065 108.523,118.614 L 108.523,123.045 L 101.039,123.045 L 101.039,118.614 C 96.694,117.065 93.555,112.948 93.555,108.076 C 93.555,106.901 94.108,105.789 95.051,105.082 L 108.164,95.248 C 107.562,93.983 106.271,93.107 104.781,93.107 C 102.719,93.107 101.039,94.784 101.039,96.849 L 93.555,96.849 C 93.555,91.977 96.694,87.861 101.039,86.311 L 101.039,81.88 L 108.523,81.88 L 108.523,86.311 C 112.868,87.861 116.008,91.977 116.008,96.849 C 116.008,98.024 115.454,99.136 114.511,99.843 Z" marker-start="none" marker-end="none"/>
     <path d="M 209.562,130.528 L 134.719,130.528 L 134.719,138.013 L 209.562,138.013 L 209.562,130.528 Z" marker-start="none" marker-end="none"/>
     <path d="M 52.389,130.528 L 14.968,130.528 L 14.968,138.013 L 52.389,138.013 L 52.389,130.528 Z" marker-start="none" marker-end="none"/>
     <path d="M 67.358,108.075 L 14.969,108.075 L 14.969,115.56 L 67.358,115.56 L 67.358,108.075 Z" marker-start="none" marker-end="none"/>
     <path d="M 52.389,59.426 L 14.968,59.426 L 14.968,66.911 L 52.389,66.911 L 52.389,59.426 Z" marker-start="none" marker-end="none"/>
     <path d="M 104.78,59.426 L 67.359,59.426 L 67.359,66.911 L 104.78,66.911 L 104.78,59.426 Z" marker-start="none" marker-end="none"/>
     <path d="M 142.203,59.426 L 119.75,59.426 L 119.75,66.911 L 142.203,66.911 L 142.203,59.426 Z" marker-start="none" marker-end="none"/>
     <path d="M 179.625,59.426 L 157.172,59.426 L 157.172,66.911 L 179.625,66.911 L 179.625,59.426 Z" marker-start="none" marker-end="none"/>
    </g>
    <path d="M 182.119,80.671 C 199.671,95.715 226.125,93.68 241.17,76.128 C 256.214,58.576 254.179,32.122 236.627,17.077 C 219.076,2.033 192.621,4.068 177.576,21.62 C 162.532,39.171 164.567,65.626 182.119,80.671 Z" stroke="none" fill="#cccccc" stroke-width="4.542" stroke-linejoin="round" stroke-linecap="round" marker-start="none" marker-end="none" stroke-miterlimit="79.8403193612775"/>
    <path d="M 197.966,31.026 L 238.132,66.724" fill="none" stroke="#ffffff" stroke-width="12" stroke-linejoin="round" stroke-linecap="round" stroke-miterlimit="79.8403193612775"/>
    <path d="M 197.97,31.024 L 180.614,49.833" fill="none" stroke="#ffffff" stroke-width="12" stroke-linejoin="round" stroke-linecap="round" stroke-miterlimit="79.8403193612775"/>
   </g>
  </g>
 </g>
</svg>
