<?xml version="1.0" encoding="iso-8859-1"?>
<!-- Generator: Adobe Illustrator 19.0.0, SVG Export Plug-In . SVG Version: 6.00 Build 0)  -->
<svg xmlns="http://www.w3.org/2000/svg" xmlns:xlink="http://www.w3.org/1999/xlink" version="1.1" id="Capa_1" x="0px" y="0px" viewBox="0 0 480 480" style="enable-background:new 0 0 480 480;" xml:space="preserve" width="512px" height="512px">
<g>
	<g>
		<path d="M472,191.989H8c-4.416,0-8,3.576-8,8v240v32c0,4.424,3.584,8,8,8h464c4.416,0,8-3.576,8-8v-32v-240    C480,195.565,476.416,191.989,472,191.989z M464,463.989H16v-16h448V463.989z M464,431.989H16v-224h448V431.989z" fill="#FFFFFF"/>
	</g>
</g>
<g>
	<g>
		<rect x="192" y="95.989" width="16" height="16" fill="#FFFFFF"/>
	</g>
</g>
<g>
	<g>
		<rect x="160" y="95.989" width="16" height="16" fill="#FFFFFF"/>
	</g>
</g>
<g>
	<g>
		<rect x="128" y="95.989" width="16" height="16" fill="#FFFFFF"/>
	</g>
</g>
<g>
	<g>
		<rect x="128" y="127.989" width="16" height="16" fill="#FFFFFF"/>
	</g>
</g>
<g>
	<g>
		<rect x="128" y="159.989" width="16" height="16" fill="#FFFFFF"/>
	</g>
</g>
<g>
	<g>
		<rect x="160" y="159.989" width="16" height="16" fill="#FFFFFF"/>
	</g>
</g>
<g>
	<g>
		<rect x="192" y="159.989" width="16" height="16" fill="#FFFFFF"/>
	</g>
</g>
<g>
	<g>
		<rect x="224" y="159.989" width="16" height="16" fill="#FFFFFF"/>
	</g>
</g>
<g>
	<g>
		<rect x="256" y="159.989" width="16" height="16" fill="#FFFFFF"/>
	</g>
</g>
<g>
	<g>
		<path d="M456.224,17.645L428.72,1.149c-2.296-1.376-5.128-1.512-7.544-0.368l-56.672,26.84l-64.88-26.488    c-1.536-0.624-3.24-0.768-4.84-0.384l-32,7.472c-3.12,0.728-5.504,3.24-6.064,6.4c-0.552,3.152,0.824,6.328,3.496,8.088    l48.144,31.512l-35.664,16.896l-27.8-13.936c-5.728-2.856-12.6-2.056-17.496,2.096c-4.896,4.144-6.84,10.784-4.96,16.904    l9.968,32.496c2.08,6.768,8.224,11.312,15.296,11.312h24.904c0.96,0,1.912-0.168,2.808-0.504l51.8-19.432l-6.56,59.056    c-0.328,2.912,0.968,5.768,3.376,7.448c1.368,0.952,2.968,1.44,4.576,1.44c1.224,0,2.448-0.28,3.576-0.84l32-16    c1.896-0.952,3.336-2.616,4.008-4.624l22.952-68.856l64-32c5.224-2.608,8.608-7.848,8.832-13.688S461.232,20.653,456.224,17.645z     M284.632,19.525l11.32-2.64l48.968,20l-19.6,9.28L284.632,19.525z M381.032,64.837c-1.896,0.952-3.336,2.616-4.008,4.624    l-22.952,68.856l-15.88,7.936l6.376-57.384c0.312-2.768-0.84-5.488-3.032-7.192c-1.432-1.112-3.168-1.688-4.92-1.688    c-0.944,0-1.896,0.168-2.808,0.504l-62.64,23.496h-23.456l-9.968-32.496l31.296,15.648c2.192,1.096,4.776,1.12,7,0.072    l148.128-70.16L448,31.349L381.032,64.837z" fill="#FFFFFF"/>
	</g>
</g>
<g>
	<g>
		<path d="M440,287.989H280c-4.416,0-8,3.576-8,8v48c0,4.424,3.584,8,8,8h160c4.416,0,8-3.576,8-8v-48    C448,291.565,444.416,287.989,440,287.989z M432,335.989H288v-32h144V335.989z" fill="#FFFFFF"/>
	</g>
</g>
<g>
	<g>
		<path d="M244.8,321.589l-28.032-21.024c1.288-2.704,4.048-4.576,7.232-4.576c4.408,0,8,3.584,8,8h16    c0-10.416-6.712-19.216-16-22.528v-9.472h-16v9.472c-9.288,3.312-16,12.112-16,22.528c0,2.512,1.184,4.888,3.2,6.4l28.032,21.024    c-1.288,2.704-4.048,4.576-7.232,4.576c-4.408,0-8-3.584-8-8h-16c0,10.416,6.712,19.216,16,22.528v9.472h16v-9.472    c9.288-3.312,16-12.112,16-22.528C248,325.477,246.816,323.101,244.8,321.589z" fill="#FFFFFF"/>
	</g>
</g>
<g>
	<g>
		<rect x="288" y="239.989" width="160" height="16" fill="#FFFFFF"/>
	</g>
</g>
<g>
	<g>
		<rect x="32" y="239.989" width="80" height="16" fill="#FFFFFF"/>
	</g>
</g>
<g>
	<g>
		<rect x="32" y="287.989" width="112" height="16" fill="#FFFFFF"/>
	</g>
</g>
<g>
	<g>
		<rect x="32" y="391.989" width="80" height="16" fill="#FFFFFF"/>
	</g>
</g>
<g>
	<g>
		<rect x="144" y="391.989" width="80" height="16" fill="#FFFFFF"/>
	</g>
</g>
<g>
	<g>
		<rect x="256" y="391.989" width="48" height="16" fill="#FFFFFF"/>
	</g>
</g>
<g>
	<g>
		<rect x="336" y="391.989" width="48" height="16" fill="#FFFFFF"/>
	</g>
</g>
<g>
</g>
<g>
</g>
<g>
</g>
<g>
</g>
<g>
</g>
<g>
</g>
<g>
</g>
<g>
</g>
<g>
</g>
<g>
</g>
<g>
</g>
<g>
</g>
<g>
</g>
<g>
</g>
<g>
</g>
</svg>
